<?xml version="1.0" encoding="utf-8"?>
<svg width="2564px" height="1109px" viewBox="0 0 2564 1109" version="1.1" xmlns:xlink="http://www.w3.org/1999/xlink" xmlns="http://www.w3.org/2000/svg">
  <g id="svg">
    <g id="furnished">
      <g id="westos" transform="translate(0 216.48926)">
        <g id="w" transform="translate(0 125.33203)">
          <path d="M288.177 0L407.541 0L497.916 270.273L575.502 0L688.045 0L556.745 419.477L443.35 419.477L345.301 133.005L248.958 419.477L133.858 419.477L0 0L119.363 0L196.95 269.42L288.177 0L288.177 0Z" id="Shape" fill="#CD252D" fill-rule="evenodd" stroke="none" />
        </g>
        <g id="estos" transform="translate(701.35693 0)">
          <path d="M960.117 125.332L960.117 0L857.806 0L857.806 58.8291C857.806 78.723 852.264 94.7802 841.18 107.001C830.096 119.221 814.039 125.332 793.008 125.332L771.693 125.332L771.693 225.938L847.574 225.938L847.574 421.182C847.574 461.538 859.511 493.227 883.383 516.247C907.256 539.267 939.655 550.777 980.579 550.777C1006.73 550.777 1028.04 547.366 1044.52 540.546L1044.52 446.76C1036.57 449.034 1024.91 450.17 1009.57 450.17C992.516 450.17 980.011 446.476 972.053 439.087C964.096 431.698 960.117 419.193 960.117 401.573L960.117 225.938L1044.52 225.938L1044.52 125.332L960.117 125.332L960.117 125.332ZM312.903 396.456L407.541 424.592C396.173 463.243 373.863 495.073 340.612 520.083C307.361 545.092 266.01 557.597 216.559 557.597C156.309 557.597 105.153 537.277 63.092 496.636C21.0307 455.996 0 401.572 0 333.364C0 268.567 20.4623 215.564 61.3869 174.355C102.311 133.146 150.625 112.542 206.328 112.542C271.125 112.542 321.855 131.867 358.517 170.518C395.178 209.169 413.509 262.315 413.509 329.954C413.509 334.501 413.367 339.617 413.083 345.301C412.798 350.985 412.656 355.532 412.656 358.942L411.804 364.91L111.69 364.91C112.827 392.193 123.626 414.929 144.089 433.118C164.551 451.307 188.992 460.401 217.412 460.401C265.726 460.401 297.556 439.086 312.903 396.456L312.903 396.456ZM429.327 428.002L526.523 406.687C527.66 424.876 534.907 440.081 548.264 452.301C561.622 464.522 579.952 470.632 603.257 470.632C620.877 470.632 634.519 466.653 644.181 458.696C653.844 450.738 658.675 440.791 658.675 428.855C658.675 407.824 643.613 394.183 613.488 387.93L558.069 375.141C518.85 366.615 489.435 351.269 469.825 329.101C450.216 306.934 440.411 280.503 440.411 249.81C440.411 211.727 455.331 179.329 485.172 152.614C515.013 125.899 552.385 112.542 597.288 112.542C625.708 112.542 650.718 116.663 672.317 124.905C693.916 133.146 710.684 143.662 722.62 156.451C734.556 169.24 743.651 182.171 749.903 195.244C756.156 208.317 760.134 221.106 761.839 233.611L667.201 254.925C664.928 240.147 658.249 227.074 647.165 215.706C636.082 204.338 619.74 198.654 598.141 198.654C583.363 198.654 570.716 202.633 560.201 210.59C549.685 218.548 544.428 228.495 544.428 240.431C544.428 260.894 557.217 273.398 582.794 277.946L642.476 290.734C682.832 299.26 713.668 314.891 734.983 337.627C756.298 360.363 766.955 387.646 766.955 419.476C766.955 456.991 752.745 489.389 724.325 516.672C695.905 543.955 655.833 557.597 604.109 557.597C574.553 557.597 548.122 553.192 524.818 544.382C501.514 535.572 483.467 524.204 470.678 510.278C457.889 496.352 448.226 482.426 441.69 468.501C435.153 454.575 431.032 441.076 429.327 428.002L429.327 428.002ZM1131.54 175.634C1173.31 133.573 1225.75 112.542 1288.84 112.542C1351.93 112.542 1404.37 133.573 1446.14 175.634C1487.92 217.695 1508.81 270.841 1508.81 335.069C1508.81 399.298 1487.92 452.443 1446.14 494.505C1404.37 536.566 1351.93 557.597 1288.84 557.597C1225.75 557.597 1173.31 536.566 1131.54 494.505C1089.76 452.443 1068.87 399.298 1068.87 335.069C1068.87 270.841 1089.76 217.695 1131.54 175.634L1131.54 175.634ZM1621.83 406.687L1524.63 428.002C1526.34 441.076 1530.46 454.575 1536.99 468.501C1543.53 482.426 1553.19 496.352 1565.98 510.278C1578.77 524.204 1596.82 535.572 1620.12 544.382C1643.42 553.192 1669.86 557.597 1699.41 557.597C1751.14 557.597 1791.21 543.955 1819.63 516.672C1848.05 489.389 1862.26 456.991 1862.26 419.476C1862.26 387.646 1851.6 360.363 1830.29 337.627C1808.97 314.891 1778.14 299.26 1737.78 290.734L1678.1 277.946C1652.52 273.398 1639.73 260.894 1639.73 240.431C1639.73 228.495 1644.99 218.548 1655.5 210.59C1666.02 202.633 1678.67 198.654 1693.44 198.654C1715.04 198.654 1731.38 204.338 1742.47 215.706C1753.55 227.074 1760.23 240.147 1762.5 254.925L1857.14 233.611C1855.44 221.106 1851.46 208.317 1845.21 195.244C1842.08 188.706 1818.47 152.556 1784.64 133.511C1750.83 114.475 1706.8 112.542 1692.59 112.542C1647.69 112.542 1610.32 125.899 1580.47 152.614C1550.63 179.329 1535.71 211.727 1535.71 249.81C1535.71 280.503 1545.52 306.934 1565.13 329.101C1584.74 351.269 1614.15 366.615 1653.37 375.141L1708.79 387.93C1738.92 394.183 1753.98 407.824 1753.98 428.855C1753.98 440.791 1749.15 450.738 1739.48 458.696C1729.82 466.653 1716.18 470.632 1698.56 470.632C1675.26 470.632 1656.92 464.522 1643.57 452.301C1630.21 440.081 1622.96 424.876 1621.83 406.687L1621.83 406.687ZM301.82 287.326C300.683 264.022 292.299 244.412 276.669 228.497C261.038 212.582 238.16 204.624 208.035 204.624C180.752 204.624 158.584 213.15 141.532 230.202C124.48 247.254 115.386 266.295 114.249 287.326L301.82 287.326L301.82 287.326ZM1213.39 422.888C1234.13 443.918 1259.28 454.434 1288.84 454.434C1318.4 454.434 1343.55 443.918 1364.3 422.888C1385.04 401.857 1395.42 372.585 1395.42 335.07C1395.42 297.556 1385.04 268.284 1364.3 247.253C1343.55 226.222 1318.4 215.707 1288.84 215.707C1259.28 215.707 1234.13 226.222 1213.39 247.253C1192.64 268.284 1182.27 297.556 1182.27 335.07C1182.27 372.585 1192.64 401.857 1213.39 422.888L1213.39 422.888Z" id="Shape" fill="#092447" fill-rule="evenodd" stroke="none" />
        </g>
      </g>
      <g id="Triangle-Copy-8" transform="translate(1819.6724 0)">
        <path d="M167.263 0L334.525 334.525C334.525 334.525 255.524 257.466 171.893 257.466C88.2617 257.466 0 334.525 0 334.525L167.263 0L167.263 0Z" id="path_1" fill="#CD252D" fill-rule="evenodd" stroke="none" />
        <path d="M167.256 0L334.512 334.512C334.512 334.512 255.514 257.456 171.886 257.456C88.2582 257.455 0 334.512 0 334.512L167.256 0L167.256 0Z" transform="matrix(-1 8.742278E-08 -8.742278E-08 -1 335.45215 1108.8018)" id="path_1-Copy" fill="#0D2C54" fill-rule="evenodd" stroke="none" />
      </g>
    </g>
  </g>
</svg>